<svg width="28" height="28" viewBox="0 0 28 28" fill="none" xmlns="http://www.w3.org/2000/svg">
<path d="M26 14V4C26 3.46957 25.7893 2.96086 25.4142 2.58579C25.0391 2.21071 24.5304 2 24 2H4C3.46957 2 2.96086 2.21071 2.58579 2.58579C2.21071 2.96086 2 3.46957 2 4V24C2 24.5304 2.21071 25.0391 2.58579 25.4142C2.96086 25.7893 3.46957 26 4 26H14" fill="#C4C4C4"/>
<path d="M26 14V4C26 3.46957 25.7893 2.96086 25.4142 2.58579C25.0391 2.21071 24.5304 2 24 2H4C3.46957 2 2.96086 2.21071 2.58579 2.58579C2.21071 2.96086 2 3.46957 2 4V24C2 24.5304 2.21071 25.0391 2.58579 25.4142C2.96086 25.7893 3.46957 26 4 26H14" stroke="#495464" stroke-width="3" stroke-linecap="round" stroke-linejoin="round"/>
<path d="M19.3334 23.3333C21.5425 23.3333 23.3334 21.5425 23.3334 19.3333C23.3334 17.1242 21.5425 15.3333 19.3334 15.3333C17.1242 15.3333 15.3334 17.1242 15.3334 19.3333C15.3334 21.5425 17.1242 23.3333 19.3334 23.3333Z" fill="#495464" stroke="#495464" stroke-width="4"/>
<path d="M22.6667 22L26 24.6667M7.33337 8.66667H20.6667M7.33337 14H12.6667" stroke="#495464" stroke-width="2" stroke-linecap="round" stroke-linejoin="round"/>
</svg>
